<svg xmlns="http://www.w3.org/2000/svg" version="1.1" xmlns:xlink="http://www.w3.org/1999/xlink" viewBox="0 0 200 200"><rect width="200" height="200" fill="url('#gradient')"></rect><defs><linearGradient id="gradient" gradientTransform="rotate(158 0.5 0.5)"><stop offset="0%" stop-color="#4caf50"></stop><stop offset="100%" stop-color="#48e550"></stop></linearGradient></defs><g><g fill="#ffffff" transform="matrix(3.147665024630542,0,0,3.147665024630542,22.094316702115705,123.12323196781327)" stroke="#ff9800" stroke-width="0.2"><path d="M3.65-14.22L6.28-8.05L8.90-14.22L12.60-14.22L8.02-5.11L8.02 0L4.54 0L4.54-5.11L-0.03-14.22L3.65-14.22ZM16.95-10.57L16.95 0L13.65 0L13.65-10.57L16.95-10.57ZM13.46-13.29L13.46-13.29Q13.46-13.99 13.96-14.44Q14.47-14.89 15.28-14.89Q16.09-14.89 16.60-14.44Q17.11-13.99 17.11-13.29Q17.11-12.59 16.60-12.14Q16.09-11.69 15.28-11.69Q14.47-11.69 13.96-12.14Q13.46-12.59 13.46-13.29ZM21.55-10.57L23.19-3.92L24.86-10.57L28.33-10.57L24.88 0L21.52 0L18.08-10.57L21.55-10.57ZM34.30 0.20L34.30 0.20Q31.87 0.20 30.36-1.25Q28.86-2.71 28.86-5.03L28.86-5.03L28.86-5.30Q28.86-6.92 29.46-8.16Q30.06-9.40 31.21-10.08Q32.36-10.76 33.95-10.76L33.95-10.76Q36.17-10.76 37.46-9.38Q38.75-8.00 38.75-5.53L38.75-5.53L38.75-4.25L32.21-4.25Q32.38-3.36 32.98-2.85Q33.57-2.34 34.52-2.34L34.52-2.34Q36.08-2.34 36.96-3.44L36.96-3.44L38.47-1.66Q37.85-0.81 36.72-0.31Q35.60 0.20 34.30 0.20ZM33.93-8.22L33.93-8.22Q32.48-8.22 32.21-6.31L32.21-6.31L35.53-6.31L35.53-6.56Q35.55-7.35 35.13-7.79Q34.71-8.22 33.93-8.22ZM40.01-10.57L43.10-10.57L43.20-9.33Q44.30-10.76 46.22-10.76L46.22-10.76Q47.87-10.76 48.69-9.78Q49.50-8.79 49.53-6.81L49.53-6.81L49.53 0L46.23 0L46.23-6.67Q46.23-7.47 45.91-7.85Q45.59-8.22 44.74-8.22L44.74-8.22Q43.77-8.22 43.30-7.46L43.30-7.46L43.30 0L40.01 0L40.01-10.57Z"></path></g></g></svg>