<?xml version="1.0" standalone="no"?><!DOCTYPE svg PUBLIC "-//W3C//DTD SVG 1.1//EN" "http://www.w3.org/Graphics/SVG/1.1/DTD/svg11.dtd"><svg t="1735210174600" class="icon" viewBox="0 0 1024 1024" version="1.1" xmlns="http://www.w3.org/2000/svg" p-id="77516" xmlns:xlink="http://www.w3.org/1999/xlink" width="200" height="200"><path d="M828.330667 376.405333a29.681778 29.681778 0 0 0-24.462223-6.058666c-184.746667 36.664889-318.350222 197.859556-318.350222 385.28v81.905777H157.468444c-16.284444 0-29.468444 13.084444-29.468444 29.226667C128 882.915556 141.184 896 157.468444 896H514.986667c16.270222 0 29.468444-13.084444 29.468444-29.240889v-35.242667a393.528889 393.528889 0 0 0 190.705778-114.474666c7.224889-7.822222 9.6-18.915556 6.215111-28.984889l-8.704-25.927111h28.259556c10.538667 0 20.280889-5.589333 25.528888-14.648889A390.755556 390.755556 0 0 0 839.111111 451.669333v-52.664889c0-8.760889-3.953778-17.066667-10.780444-22.613333z m-48.156445 75.292445a332.657778 332.657778 0 0 1-36.778666 151.964444h-51.626667c-9.457778 0-18.346667 4.508444-23.893333 12.131556a29.041778 29.041778 0 0 0-4.053334 26.339555l16.014222 47.644445a334.421333 334.421333 0 0 1-135.395555 80.910222v-15.075556c0-146.716444 97.194667-275.555556 235.733333-318.947555v15.032889z" fill="#1F4561" p-id="77517"></path><path d="M42.666667 28.444444h952.888889v256H42.666667z" fill="#D2DADF" p-id="77518"></path><path d="M934.001778 0H89.998222A90.097778 90.097778 0 0 0 0 89.998222v844.003556A90.097778 90.097778 0 0 0 89.998222 1024h844.003556A90.097778 90.097778 0 0 0 1024 934.001778V89.998222A90.097778 90.097778 0 0 0 934.001778 0zM89.998222 60.003556h844.003556c16.540444 0 30.008889 13.454222 30.008889 30.008888v149.987556H59.989333V89.998222c0-16.540444 13.454222-30.008889 30.008889-30.008889zM934.001778 963.982222H89.998222a30.037333 30.037333 0 0 1-30.008889-30.008889V300.017778h904.007111v633.998222c0 16.540444-13.454222 30.008889-30.008888 30.008889z" fill="#1F4561" p-id="77519"></path><path d="M184.888889 156.444444a28.444444 28.444444 0 1 1-56.888889 0 28.444444 28.444444 0 0 1 56.888889 0zM298.666667 156.444444a28.444444 28.444444 0 1 1-56.888889 0 28.444444 28.444444 0 0 1 56.888889 0zM426.666667 156.444444a28.444444 28.444444 0 1 1-56.888889 0 28.444444 28.444444 0 0 1 56.888889 0zM557.041778 184.888889h308.138666C882.204444 184.888889 896 172.16 896 156.444444s-13.795556-28.444444-30.819556-28.444444H557.041778C540.017778 128 526.222222 140.728889 526.222222 156.444444s13.795556 28.444444 30.819556 28.444445z" fill="#1F4561" p-id="77520"></path></svg>