<?xml version="1.0" standalone="no"?><!DOCTYPE svg PUBLIC "-//W3C//DTD SVG 1.1//EN" "http://www.w3.org/Graphics/SVG/1.1/DTD/svg11.dtd"><svg t="1735209546690" class="icon" viewBox="0 0 1024 1024" version="1.1" xmlns="http://www.w3.org/2000/svg" p-id="4934" xmlns:xlink="http://www.w3.org/1999/xlink" width="200" height="200"><path d="M374.613333 603.605333h380.330667v70.698667H374.613333z m0-125.44h313.813334v70.698667H374.613333z m0-125.568h380.330667V423.253333H374.613333z m563.328 392.32a27.989333 27.989333 0 0 1 0-27.221333c5.546667-10.154667 10.752-20.309333 15.616-31.061333a11.562667 11.562667 0 0 0-10.624-16.341334h-92.416a27.989333 27.989333 0 0 0-23.552 12.672 323.84 323.84 0 0 1-41.685333 51.541334 312.448 312.448 0 0 1-222.293333 91.989333 312.362667 312.362667 0 0 1-222.208-92.032 312.32 312.32 0 0 1-92.032-222.293333c0-84.010667 32.682667-163.029333 91.989333-222.336a312.448 312.448 0 0 1 222.293333-91.989334c83.925333 0 162.944 32.682667 222.293334 92.032 15.701333 15.744 29.696 33.408 41.642666 51.498667 5.12 7.936 13.952 12.672 23.509334 12.672H942.933333a11.648 11.648 0 0 0 10.581334-16.341333 422.144 422.144 0 0 0-15.573334-31.061334 28.373333 28.373333 0 0 1 0-27.221333l31.36-56.832a28.288 28.288 0 0 0-4.693333-33.578667l-78.336-78.336a28.16 28.117333 90 0 0-33.578667-4.693333l-56.96 31.488a27.989333 27.989333 0 0 1-27.221333-0.170667 416.768 416.725333 90 0 0-85.546667-35.157333 28.032 28.032 0 0 1-19.285333-19.157333L645.589333 20.48a28.330667 28.330667 0 0 0-27.093333-20.48h-110.848a28.032 28.032 0 0 0-27.050667 20.48l-17.962666 62.293333a28.032 28.032 0 0 1-19.285334 19.114667c-29.738667 8.661333-58.453333 20.48-85.546666 35.328-8.533333 4.693333-18.688 4.693333-27.221334 0.128L273.493333 105.984a28.288 28.288 0 0 0-33.578666 4.693333L161.621333 189.098667a28.16 28.117333 90 0 0-4.693333 33.578666l31.445333 56.96c4.693333 8.533333 4.565333 18.688-0.128 27.221334a416.768 416.725333 90 0 0-35.2 85.546666 28.032 28.032 0 0 1-19.114666 19.285334l-62.293334 17.92a28.330667 28.330667 0 0 0-20.437333 27.093333v110.890667c0 12.501333 8.234667 23.722667 20.48 27.093333l62.250667 17.92a28.032 28.032 0 0 1 19.114666 19.328c8.704 29.738667 20.48 58.453333 35.328 85.504 4.693333 8.533333 4.693333 18.688 0.170667 27.306667l-31.488 56.917333a28.288 28.288 0 0 0 4.693333 33.536l78.293334 78.378667a28.16 28.117333 90 0 0 33.578666 4.693333l56.96-31.488c8.533333-4.693333 18.688-4.565333 27.221334 0.128a416.768 416.725333 90 0 0 85.546666 35.2c9.258667 2.645333 16.64 9.813333 19.285334 19.114667l17.92 62.293333c3.541333 12.074667 14.592 20.48 27.093333 20.48h110.848a28.032 28.032 0 0 0 27.093333-20.48l17.962667-62.293333a28.032 28.032 0 0 1 19.285333-19.114667 425.642667 425.6 90 0 0 85.504-35.328 28.586667 28.586667 0 0 1 27.264-0.170667l56.96 31.530667c11.050667 5.973333 24.746667 4.096 33.536-4.693333l78.336-78.378667a28.16 28.117333 90 0 0 4.693334-33.578667z" p-id="4935" fill="#1296db"></path></svg>