<?xml version="1.0" standalone="no"?><!DOCTYPE svg PUBLIC "-//W3C//DTD SVG 1.1//EN" "http://www.w3.org/Graphics/SVG/1.1/DTD/svg11.dtd"><svg t="1735210063453" class="icon" viewBox="0 0 1024 1024" version="1.1" xmlns="http://www.w3.org/2000/svg" p-id="60298" xmlns:xlink="http://www.w3.org/1999/xlink" width="200" height="200"><path d="M688.354 459.7v34.376a16.032 16.032 0 0 1-8.862 14.34L672.322 512h192.416l-14.346-7.172a32.068 32.068 0 0 1-17.726-28.676l-0.022-268.764H592.162v128.258c0 59.74 40.904 109.796 96.192 124.054z" fill="#F5B97D" p-id="60299"></path><path d="M143.258 191.354m-96.194 0a96.194 96.194 0 1 0 192.388 0 96.194 96.194 0 1 0-192.388 0Z" fill="#FFC269" p-id="60300"></path><path d="M415.268 319.612c0-97.398-62.386-176.354-159.786-176.354s-176.354 78.956-176.354 176.354c0 80.162 78.956 128.258 176.354 128.258s159.786-48.096 159.786-128.258z" fill="#FFA95F" p-id="60301"></path><path d="M191.354 255.484c-21.536-13.41-44.5-32.572-58.328-62.614-33.182 32.068-53.898 76.952-53.898 126.744 0 79.73 78.13 127.696 174.804 128.21z" fill="#FF8B5A" p-id="60302"></path><path d="M303.58 544.064H175.322c-70.834 0-128.258 57.424-128.258 128.258v192.388h336.678V624.226c0-44.272-35.89-80.162-80.162-80.162z" fill="#95D6A4" p-id="60303"></path><path d="M175.322 592.162h32.064V544.066H175.322c-70.834 0-128.258 57.424-128.258 128.258v192.388H95.16v-192.388c0.002-44.202 35.962-80.162 80.162-80.162z" fill="#78C2A4" p-id="60304"></path><path d="M239.452 608.194c-35.418 0-64.13-28.712-64.13-64.128v-80.162h128.258v80.162c0 35.416-28.71 64.128-64.128 64.128z" fill="#F7D291" p-id="60305"></path><path d="M175.322 538.73c23.49 13.516 50.634 21.368 79.624 21.368a159.638 159.638 0 0 0 48.634-7.59v-72.57H175.322z" fill="#ECBD83" p-id="60306"></path><path d="M447.872 640.258H159.29v224.452h288.58c17.708 0 32.064-14.356 32.064-32.064v-160.322c0.002-17.71-14.354-32.066-32.062-32.066z" fill="#ECEAEC" p-id="60307"></path><path d="M159.29 640.258c-17.708 0-32.064 14.356-32.064 32.064v160.322c0 17.708 14.356 32.064 32.064 32.064h288.58c17.708 0 32.064-14.356 32.064-32.064h-0.004l0.004-16.032H223.42c-26.564 0-48.096-21.534-48.096-48.096v-128.258z" fill="#DAD8DB" p-id="60308"></path><path d="M190.818 255.484c50.968 36.14 123.788 47.856 163.626 51.642 16.378 1.556 28.76 15.434 28.76 31.886v44.73c0 70.834-57.424 128.258-128.258 128.258s-128.258-57.424-128.258-128.258v-0.028a148.94 148.94 0 0 1 38.544-99.98z" fill="#FFE1A0" p-id="60309"></path><path d="M303.58 752.484m-32.064 0a32.064 32.064 0 1 0 64.128 0 32.064 32.064 0 1 0-64.128 0Z" fill="#FFFFFF" p-id="60310"></path><path d="M925.454 542.358L864.738 512h-192.414l-92.808 46.404a64.128 64.128 0 0 0-35.45 57.358v313.076h416.838v-329.12a64.13 64.13 0 0 0-35.45-57.36z" fill="#C3DDFF" p-id="60311"></path><path d="M656.29 694.818a80.16 80.16 0 0 0-30.086-62.596l-68.976-55.18c-8.322 10.958-13.166 24.442-13.166 38.72v313.076h112.226v-234.02z" fill="#A4CCFF" p-id="60312"></path><path d="M944.87 704.388H720.42c-35.418 0-64.13 28.712-64.13 64.13l48.096 160.322H1009v-160.322c0-35.42-28.712-64.13-64.13-64.13z" fill="#9B959D" p-id="60313"></path><path d="M688.354 459.7V207.388H592.16v128.258c0.002 59.74 40.906 109.796 96.194 124.054z" fill="#E3AA75" p-id="60314"></path><path d="M768.516 111.194h-128.258c-44.272 0-80.162 35.89-80.162 80.162 0 17.708 14.356 32.064 32.064 32.064h16.032c26.564 0 48.096 21.534 48.096 48.096v48.096c0 44.272 35.89 80.162 80.162 80.162h80.162c35.418 0 64.13-28.712 64.13-64.13V223.42c0-61.982-50.246-112.226-112.226-112.226z" fill="#9F6E50" p-id="60315"></path><path d="M768.516 704.388H720.42c-35.418 0-64.13 28.712-64.13 64.13v160.322h48.096v-160.322c0.002-35.42 28.712-64.13 64.13-64.13z" fill="#857E87" p-id="60316"></path><path d="M640.258 111.194c-44.272 0-80.162 35.89-80.162 80.162 0 17.708 14.356 32.064 32.064 32.064h16.032c26.564 0 48.096 21.534 48.096 48.096V111.194z" fill="#785353" p-id="60317"></path><path d="M175.322 383.742v-111.15l-10.09 11.14a148.94 148.94 0 0 0-38.542 99.98v0.03c0 70.834 57.422 128.258 128.258 128.258 8.322 0 16.436-0.858 24.316-2.372-59.196-11.37-103.942-63.372-103.942-125.886z" fill="#F7D291" p-id="60318"></path><path d="M225.234 425.688a15 15 0 0 0 7.53 19.832c11.396 5.124 24.612 7.834 38.216 7.834s26.82-2.708 38.216-7.834a15 15 0 0 0-12.302-27.362c-7.558 3.398-16.518 5.194-25.914 5.194s-18.356-1.796-25.914-5.194a14.998 14.998 0 0 0-19.832 7.53zM222.882 382.71a15 15 0 0 0 15-15v-16.032a15 15 0 0 0-30 0v16.032a15 15 0 0 0 15 15zM319.076 382.71a15 15 0 0 0 15-15v-16.032a15 15 0 0 0-30 0v16.032a15 15 0 0 0 15 15zM303.582 705.418c-25.952 0-47.064 21.114-47.064 47.064 0 25.952 21.114 47.066 47.064 47.066s47.064-21.114 47.064-47.066c0-25.95-21.114-47.064-47.064-47.064z m0 64.13c-9.41 0-17.064-7.656-17.064-17.066s7.656-17.064 17.064-17.064 17.064 7.656 17.064 17.064c0 9.412-7.656 17.066-17.064 17.066z" p-id="60319"></path><path d="M975.904 695.734v-96.016c0-30.166-16.76-57.286-43.742-70.776l-75.062-37.532a16.972 16.972 0 0 1-9.432-15.258l-0.02-67.726c28.25-12.092 48.094-40.16 48.094-72.782v-112.226c0-70.152-57.074-127.226-127.226-127.226h-128.258c-52.472 0-95.162 42.69-95.162 95.162 0 20.706 13.448 38.32 32.064 44.6v99.692c0 61.334 39.004 115.346 96.194 135.182v23.884l-100.548 50.274c-26.98 13.49-43.742 40.61-43.742 70.776v233.948h-37.846a48.362 48.362 0 0 0 3.716-18.63v-157.192c0-26.814-21.816-48.63-48.63-48.63H398.74v-1.032c0-47.368-34.792-86.754-80.164-93.968v-18.216c41.016-20.426 70.93-59.922 78.012-106.824 21.724-22.968 33.678-53.22 33.678-85.604 0-51.866-16.814-99.66-47.344-134.576-32.016-36.614-77.466-56.78-127.978-56.78-6.742 0-13.4 0.356-19.962 1.038C214.424 98.8 179.792 80.162 142.72 80.162c-61.312 0-111.194 49.88-111.194 111.194 0 32.112 13.564 62.088 37.434 83.212a191.16 191.16 0 0 0-5.37 45.046c0 41.374 19.45 78.698 53.4 102.646 7.556 27.024 22.84 50.838 43.33 68.908v38.686c-71.966 7.524-128.256 68.544-128.256 142.468v177.388H15a15 15 0 0 0 0 30h514.064v49.128a15 15 0 0 0 30 0V615.762c0-6.338 1.218-12.448 3.444-18.098l55.336 46.114a64.986 64.986 0 0 1 23.446 50.058v235.002a15 15 0 0 0 30 0v-160.322c0-27.09 22.04-49.13 49.128-49.13h224.452c27.09 0 49.128 22.04 49.128 49.13v160.322a15 15 0 0 0 30 0v-160.322c0.002-32.622-19.844-60.692-48.094-72.782zM61.528 191.354c0-44.77 36.422-81.194 81.194-81.194 22.596 0 43.93 9.514 59.108 25.604-54.694 15.828-99.374 55.454-122.058 106.884-11.734-14.342-18.244-32.302-18.244-51.294z m50.342 184.688c-11.904-15.996-18.278-35.272-18.278-56.428 0-88.972 72.384-161.356 161.354-161.356 42.334 0 78.778 16.088 105.394 46.528 25.748 29.446 39.928 70.226 39.928 114.828 0 6.996-0.71 13.78-2.064 20.32v-0.922c0-24.396-18.202-44.524-42.34-46.818-37.67-3.582-108.076-14.702-156.37-48.948a15 15 0 0 0-19.794 2.166l-25.584 28.25a163.614 163.614 0 0 0-42.246 102.38z m29.818 7.67a133.684 133.684 0 0 1 34.664-89.91l16.952-18.718c52.902 32.51 121.804 43.37 159.722 46.974 8.654 0.822 15.178 8.11 15.178 16.952v44.73c0 62.45-50.808 113.258-113.258 113.258s-113.258-50.806-113.258-113.286z m146.892 139.262v5.058c0 27.09-22.04 49.128-49.13 49.128s-49.128-22.04-49.128-49.128v-16.5a142.32 142.32 0 0 0 64.626 15.468c11.582 0 22.836-1.418 33.632-4.026z m176.356 308.106c0 10.272-8.358 18.63-18.63 18.63H160.856c-10.272 0-18.63-8.358-18.63-18.63v-78.596a15 15 0 0 0-30 0v78.596c0 6.598 1.326 12.888 3.716 18.63H62.064v-177.388c0-59.59 46.268-108.542 104.762-112.906 12.174 28.062 40.138 47.744 72.624 47.744 32.404 0 60.308-19.588 72.53-47.538 31.974 4.136 56.762 31.52 56.762 64.602v1.032H160.856c-26.814 0-48.63 21.816-48.63 48.63v14.466a15 15 0 0 0 30 0v-14.466c0-10.272 8.358-18.63 18.63-18.63h222.828l0.058 0.002 0.058-0.002h62.506c10.272 0 18.63 8.358 18.63 18.63z m142.226-495.434V238.42h1.032c18.25 0 33.096 14.848 33.096 33.098v48.096c0 52.472 42.69 95.162 95.162 95.162h16.03a15 15 0 0 0 0-30h-16.03c-35.93 0-65.162-29.232-65.162-65.162v-48.096c0-34.792-28.304-63.098-63.096-63.098h-16.032c-9.41 0-17.064-7.656-17.064-17.064 0-35.93 29.232-65.162 65.162-65.162h128.258c53.61 0 97.226 43.616 97.226 97.226v112.226c0 27.09-22.04 49.128-49.128 49.128a15 15 0 0 0 0 30c0.348 0 0.69-0.022 1.036-0.026l0.018 61.414a47.09 47.09 0 0 0 4.854 20.838h-119.166v-37.3a15 15 0 0 0-11.254-14.524c-50.014-12.898-84.942-57.938-84.942-109.53z m338.742 353.766c-0.346-0.004-0.686-0.026-1.032-0.026H720.418c-18.552 0-35.622 6.434-49.128 17.168v-12.718a94.91 94.91 0 0 0-34.24-73.106l-55.478-46.232c1.494-0.96 3.034-1.87 4.65-2.678l89.64-44.82h185.336l57.548 28.776c16.752 8.376 27.158 25.212 27.158 43.942z" p-id="60320"></path></svg>