<?xml version="1.0" standalone="no"?><!DOCTYPE svg PUBLIC "-//W3C//DTD SVG 1.1//EN" "http://www.w3.org/Graphics/SVG/1.1/DTD/svg11.dtd"><svg t="1746018630072" class="icon" viewBox="0 0 1024 1024" version="1.1" xmlns="http://www.w3.org/2000/svg" p-id="2123" xmlns:xlink="http://www.w3.org/1999/xlink" width="200" height="200"><path d="M542 835.6c-60.4 0-117.2-23.6-160-66.4-88-88-88-231.6 0-320 42.8-42.8 99.6-66.4 160-66.4 60.4 0 117.2 23.6 160 66.4 88 88.4 88 231.6 0 320-42.8 42.8-99.6 66.4-160 66.4z m0-440c-57.2 0-110.8 22.4-151.2 62.4-83.2 83.2-83.2 218.8 0 302 40.4 40.4 94 62.4 151.2 62.4 57.2 0 110.8-22.4 151.2-62.4 83.2-83.2 83.2-218.8 0-302-40.4-40.4-94-62.4-151.2-62.4z m0 368c-41.2 0-80-16-109.2-45.2-29.2-29.2-45.2-68-45.2-109.2s16-80 45.2-109.2c29.2-29.2 68-45.2 109.2-45.2s80 16 109.2 45.2c60.4 60.4 60.4 158.4 0 218.4-29.2 29.2-68 45.2-109.2 45.2z m0-296.4c-38 0-73.6 14.8-100.4 41.6-26.8 26.8-41.6 62.4-41.6 100.4 0 38 14.8 73.6 41.6 100.4 26.8 26.8 62.4 41.6 100.4 41.6s73.6-14.8 100.4-41.6c55.2-55.2 55.2-145.2 0-200.8-26.8-26.8-62.4-41.6-100.4-41.6z" fill="#4A555F" p-id="2124"></path><path d="M542 808c-53.2 0-103.2-20.8-140.8-58.4-77.6-77.6-77.6-203.6 0-281.2 37.6-37.6 87.6-58.4 140.8-58.4 53.2 0 103.2 20.8 140.8 58.4 77.6 77.6 77.6 203.6 0 281.2-37.6 38-87.6 58.4-140.8 58.4z m0-368c-45.2 0-87.6 17.6-119.6 49.6S372.8 564 372.8 609.2c0 45.2 17.6 87.6 49.6 119.6s74.4 49.6 119.6 49.6c45.2 0 87.6-17.6 119.6-49.6 66-66 66-173.2 0-239.2-32-32-74.4-49.6-119.6-49.6z" fill="#FFD552" p-id="2125"></path><path d="M848.4 992.4l-155.6-155.6c-10.4-10.4-16-24-16-38.4 0-14.4 5.6-28 16-38.4 10.4-10.4 24-16 38.4-16 14.4 0 28 5.6 38.4 16l155.6 155.6-76.8 76.8z m-116.8-235.6c-11.2 0-21.6 4.4-29.6 12-8 8-12 18.4-12 29.6 0 11.2 4.4 21.6 12 29.6l146.4 146.4 58.8-58.8-146.4-146.4c-7.6-8-18.4-12.4-29.2-12.4z" fill="#4A555F" p-id="2126"></path><path d="M712.4 817.6c-10.4-10.4-10.4-27.6 0-38 5.2-5.2 12-8 19.2-8 7.2 0 14 2.8 19.2 8l136 136-38 38-136.4-136z" fill="#F68F6F" p-id="2127"></path><path d="M892 1024c-7.6 0-14.4-2.8-20-8.4l-32.4-32.4 76.8-76.8 32.4 32.4c10.8 10.8 10.8 28.8 0 39.6l-37.2 37.2c-5.2 5.6-12.4 8.4-19.6 8.4z m-34.4-40.4l23.6 23.6c6 6 16 6 22 0l37.2-37.2c6-6 6-16 0-22l-23.6-23.6-59.2 59.2z" fill="#4A555F" p-id="2128"></path><path d="M892 996.8c-0.4 0-0.4 0-0.4-0.4l-13.2-13.2 38-38 13.2 13.2c0.4 0.4 0.4 0.8 0 1.2l-37.2 37.2c0-0.4-0.4 0-0.4 0z" fill="#FFD552" p-id="2129"></path><path d="M837.6 979.6H69.2L67.2 0h770.4v846l-76.8-76.8c-8-8-18.4-12.4-29.6-12.4-11.2 0-21.6 4.4-29.6 12.4-16.4 16.4-16.4 42.8 0 58.8l135.6 135.6v16z m-755.6-12.8h741.2l-130-130c-10.4-10.4-16-24-16-38.4s5.6-28 16-38.4c10.4-10.4 24-16 38.4-16 14.4 0 28 5.6 38.4 16l55.2 55.2V12.4H79.6l2.4 954.4z" fill="#4A555F" p-id="2130"></path><path d="M354.4 126.4h376v12.4h-376zM354.4 216.4h376v12.4h-376zM181.2 306.8h549.6v12.4H181.2zM181.2 397.2h130.4v12.4H181.2zM181.2 487.6h84v12.4h-84zM181.2 577.6h84v12.4h-84zM181.2 668h84v12.4h-84zM181.2 758.4h130.4v12.4H181.2zM181.2 848.4h212.8v12.4H181.2z" fill="#4A555F" p-id="2131"></path><path d="M654.4 601.6l-43.6-17.2 18.8-42.8-12.8-12.8-2.4-2.4-0.4-0.4-42.8 18.8-17.2-43.6h-18.4l-17.2 43.6-42.8-18.8-12 12-0.8 1.2 18.8 42.8-43.6 17.2v18.4l43.6 17.2-18.8 42.8 4 3.6 11.2 11.2 0.4 0.4 42.8-18.8 17.2 43.6h18.4l17.2-43.6 42.8 18.8 12-12 0.8-0.8-18.8-42.8 43.6-17.2v-18.4z m-108.4 43.2c-12.8 0-24-6.8-30-17.2-3.2-5.2-4.8-11.2-4.8-17.6 0-19.2 15.6-35.2 35.2-35.2 6.4 0 12.4 1.6 17.2 4.8 10.4 6 17.6 17.2 17.6 30.4 0 19.2-15.6 34.8-35.2 34.8z" fill="#71CDE1" p-id="2132"></path><path d="M561.2 723.6h-26.8l-16.4-41.6-41.2 18-3.2-4-18-18 17.6-40.8-41.6-16.4v-26.8l41.6-16.4-17.6-40.8 4-4 15.2-15.2 40.8 17.6 16.4-41.6h26.8l16.4 41.6 40.8-17.6 21.6 21.6-18 40.8 41.6 16.4v26.8l-41.6 16.4 18 40.8-4 4-14.8 14.8-40.8-18-16.8 42.4z m-18.4-12.4h9.6l18-45.6 44.8 19.6 6.8-6.8-19.6-44.8 45.6-18v-9.6l-45.6-18 19.6-44.8-9.6-9.6-44.8 19.6-18-45.6H540l-18 45.6-45.2-19.6-6.8 6.8 19.6 44.8-45.6 18v9.6l45.6 18-19.6 44.8 9.6 9.6 44.8-19.6 18.4 45.6z m3.2-60c-14.4 0-28-7.6-35.6-20.4-3.6-6.4-5.6-13.6-5.6-20.8 0-22.8 18.4-41.2 41.2-41.2 7.2 0 14.4 2 20.4 5.6 12.8 7.2 20.8 21.2 20.8 36 0.4 22.4-18.4 40.8-41.2 40.8z m0-70c-16 0-28.8 12.8-28.8 28.8 0 5.2 1.2 10 4 14.4 5.2 8.8 14.4 14 24.8 14 16 0 28.8-12.8 28.8-28.8 0-10.4-5.6-20-14.4-24.8-4.4-2.4-9.2-3.6-14.4-3.6zM246.4 247.6c-39.6 0-71.6-32-71.6-71.6s32-71.6 71.6-71.6 71.6 32 71.6 71.6-32 71.6-71.6 71.6z m0-130.8c-32.4 0-58.8 26.4-58.8 58.8s26.4 58.8 58.8 58.8S305.2 208.4 305.2 176s-26.4-59.2-58.8-59.2z" fill="#4A555F" p-id="2133"></path><path d="M246.4 176m-29.2 0a29.2 29.2 0 1 0 58.4 0 29.2 29.2 0 1 0-58.4 0Z" fill="#F68F6F" p-id="2134"></path><path d="M246.4 211.6c-19.6 0-35.6-16-35.6-35.6s16-35.6 35.6-35.6c9.6 0 18.4 3.6 25.2 10.4 6.8 6.8 10.4 15.6 10.4 25.2 0 19.6-16 35.6-35.6 35.6z m0-58.8c-12.8 0-23.2 10.4-23.2 23.2 0 12.8 10.4 22.8 22.8 22.8 12.8 0 23.2-10.4 23.2-23.2 0-12.4-10-22.8-22.8-22.8zM156.4 169.6h39.2v12.4h-39.2z" fill="#4A555F" p-id="2135"></path><path d="M296 169.6h39.2v12.4H296z" fill="#4A555F" p-id="2136"></path><path d="M239.6 226H252v39.2h-12.4z" fill="#4A555F" p-id="2137"></path><path d="M239.6 86.4H252v39.2h-12.4z" fill="#4A555F" p-id="2138"></path></svg>